<mxfile host="app.diagrams.net" modified="2023-11-07T23:47:48.452Z" agent="Mozilla/5.0 (Macintosh; Intel Mac OS X 10_15_7) AppleWebKit/537.36 (KHTML, like Gecko) Chrome/119.0.0.0 Safari/537.36" version="22.0.8" etag="V1bI4FnNQtYJ0m2GAE-G" type="github">
  <diagram name="Page-1" id="RulXzTNGWqNzEsR3_mJ4">
    <mxGraphModel>
      <root>
        <mxCell id="0" />
        <mxCell id="1" parent="0" />
      </root>
    </mxGraphModel>
  </diagram>
</mxfile>
